<?xml version="1.0" standalone="no"?>
<!DOCTYPE svg PUBLIC "-//W3C//DTD SVG 20010904//EN"
 "http://www.w3.org/TR/2001/REC-SVG-20010904/DTD/svg10.dtd">
<svg version="1.0" xmlns="http://www.w3.org/2000/svg"
 width="700.000000pt" height="700.000000pt" viewBox="0 0 700.000000 700.000000"
 preserveAspectRatio="xMidYMid meet">
<metadata>
Created by potrace 1.11, written by Peter Selinger 2001-2013
</metadata>
<g transform="translate(0.000000,700.000000) scale(0.100000,-0.100000)"
fill="#000000" stroke="none">
<path d="M3285 6993 c-417 -52 -774 -254 -1011 -573 -140 -188 -230 -412 -270
-670 -17 -117 -6 -390 20 -477 3 -10 7 -30 10 -45 10 -57 78 -240 117 -315 74
-140 236 -359 260 -351 6 2 146 140 313 307 l304 303 -39 52 c-49 63 -82 132
-103 211 -20 78 -15 240 10 310 71 200 245 342 454 371 301 43 560 -106 652
-374 32 -96 32 -259 -2 -352 -33 -92 -81 -164 -165 -245 -88 -85 -395 -379
-439 -419 -17 -16 -81 -77 -141 -135 -61 -58 -191 -182 -290 -276 -98 -93
-222 -211 -274 -261 -53 -51 -116 -111 -141 -134 -543 -509 -663 -637 -793
-848 -122 -197 -237 -495 -261 -676 -4 -28 -9 -52 -11 -55 -18 -31 -27 -418
-13 -551 15 -136 59 -329 103 -450 183 -503 534 -897 1010 -1130 168 -82 403
-157 555 -177 19 -2 41 -6 48 -9 65 -21 494 -25 612 -5 145 24 162 28 265 57
206 58 403 147 571 260 166 111 265 198 379 332 86 100 76 88 146 194 163 250
284 584 315 873 3 28 8 64 10 80 2 17 4 91 5 165 1 147 -6 251 -25 345 -2 11
-7 40 -11 65 -30 187 -133 465 -237 638 -21 34 -38 66 -38 70 0 4 81 88 180
187 l179 180 -30 35 c-17 19 -72 80 -122 134 -51 54 -103 111 -117 126 -14 15
-65 71 -115 125 -49 54 -111 121 -136 149 l-47 50 -475 -475 -476 -475 197
-199 c191 -193 251 -268 319 -395 28 -53 97 -230 89 -230 -2 0 2 -20 10 -45
33 -113 35 -321 4 -476 -131 -646 -776 -1041 -1435 -878 -216 53 -393 154
-546 310 -217 221 -334 520 -324 830 4 129 17 203 55 319 78 240 156 342 536
700 49 47 170 162 268 255 98 94 200 190 226 215 26 25 119 113 206 196 88 84
179 171 204 194 25 23 88 83 141 134 52 50 173 165 269 256 325 309 347 333
440 475 152 233 228 500 224 785 -1 143 -9 207 -40 332 -81 329 -276 617 -547
811 -186 134 -349 201 -617 258 -53 11 -353 20 -415 12z"/>
</g>
</svg>
